 http://img829.imageshack.us/img829/3856/marchofthedinosaurs2011.jpg

Country.......: United Kingdom
Genre.........: Documentary, Animation, Drama, Fantasy, Adventure
Date release..: 23.04.2011 [World]
Director......: Matthew Thompson
Writers.......: Jasper James, Matthew Thompson
Duration......: 85 min.
More..........: http://www.imdb.com/title/tt1737591
Trailer.......:

Pilot :
Attempt to reconstruct dinosaur migration to the south that took place tens of millions of years ago. The huge reptiles which inhabited the overgrown jungle of the North Pole each year, with winter coming in transmitting the warmer regions. Document with spectacular shots shows the dinosaurs overcoming the difficult journey of about 1000 miles. The road led through dangerous areas of volcanic and landslide, the animals have to face snow storms, wichurom and attacks by predators.

Cats :
Stephen Fry   	 ...  	Narrator 

Data Technical :
!!! SAMPLE !!!
Audio.....: Lector Polish
Subtitles.: None
Format                           : AVI
Format/Info                      : Audio Video Interleave
File size                        : 687 MiB
Duration                         : 1h 24mn
Overall bit rate                 : 1 131 Kbps
Writing application              : MEncoder SVN-r1.0~rc3+svn20090426-4.4.3
Writing library                  : MPlayer
Video
ID                               : 0
Format                           : MPEG-4 Visual
Format profile                   : Advanced Simple@L5
Format settings, BVOP            : Yes
Format settings, QPel            : No
Format settings, GMC             : No warppoints
Format settings, Matrix          : Default (H.263)
Codec ID                         : DX50
Codec ID/Hint                    : DivX 5
Duration                         : 1h 24mn
Bit rate                         : 998 Kbps
Width                            : 624 pixels
Height                           : 352 pixels
Display aspect ratio             : 16:9
Frame rate                       : 25.000 fps
Original frame rate              : 23.976 fps
Color space                      : YUV
Chroma subsampling               : 4:2:0
Bit depth                        : 8 bits
Scan type                        : Progressive
Bits/(Pixel*Frame)               : 0.182
Stream size                      : 606 MiB (88%)
Writing library                  : XviD 64
Audio
ID                               : 1
Format                           : MPEG Audio
Format version                   : Version 1
Format profile                   : Layer 3
Mode                             : Joint stereo
Mode extension                   : MS Stereo
Codec ID                         : 55
Codec ID/Hint                    : MP3
Duration                         : 1h 23mn
Bit rate mode                    : Variable
Bit rate                         : 122 Kbps
Channel(s)                       : 2 channels
Sampling rate                    : 48.0 KHz
Bit depth                        : 16 bits
Stream size                      : 73.3 MiB (11%)
Alignment                        : Aligned on interleaves
Interleave, duration             : 24 ms (0.61 video frame)
Interleave, preload duration     : 479 ms

Screen : 
http://img713.imageshack.us/img713/3856/marchofthedinosaurs2011.jpg 
http://img828.imageshack.us/img828/3856/marchofthedinosaurs2011.jpg 
http://img196.imageshack.us/img196/3856/marchofthedinosaurs2011.jpg 
http://img805.imageshack.us/img805/3856/marchofthedinosaurs2011.jpg 
http://img18.imageshack.us/img18/3856/marchofthedinosaurs2011.jpg